<svg xmlns="http://www.w3.org/2000/svg" xmlns:xlink="http://www.w3.org/1999/xlink" width="361.946" height="176.134" viewBox="0 0 361.946 176.134">
  <defs>
    <clipPath id="clip-path">
      <path id="Path_1" data-name="Path 1" d="M600,146.23v86.23h86.23V60H600Z" transform="translate(-600 -60)" fill="none"/>
    </clipPath>
    <linearGradient id="linear-gradient" x1="-0.03" y1="1.605" x2="-0.03" y2="1.607" gradientUnits="objectBoundingBox">
      <stop offset="0" stop-color="#1478c8"/>
      <stop offset="1" stop-color="#288cdc"/>
    </linearGradient>
    <clipPath id="clip-path-2">
      <path id="Path_2" data-name="Path 2" d="M566.591,170.53l-13.476,76.428,76.428,13.476L656.5,107.578,580.068,94.1Z" transform="translate(-553.115 -94.102)" fill="none"/>
    </clipPath>
    <linearGradient id="linear-gradient-2" x1="-0.089" y1="1.727" x2="-0.089" y2="1.729" xlink:href="#linear-gradient"/>
    <clipPath id="clip-path-3">
      <path id="Path_3" data-name="Path 3" d="M541.509,199.3l-23.594,64.824,64.824,23.594,47.188-129.647L565.1,134.474Z" transform="translate(-517.915 -134.474)" fill="none"/>
    </clipPath>
    <linearGradient id="linear-gradient-3" x1="-0.162" y1="1.881" x2="-0.162" y2="1.883" xlink:href="#linear-gradient"/>
    <clipPath id="clip-path-4">
      <path id="Path_4" data-name="Path 4" d="M525.18,230.409,495,282.683l52.274,30.18,60.361-104.548-52.274-30.18Z" transform="translate(-495 -178.135)" fill="none"/>
    </clipPath>
    <linearGradient id="linear-gradient-4" x1="-0.257" y1="2.078" x2="-0.257" y2="2.08" xlink:href="#linear-gradient"/>
    <clipPath id="clip-path-5">
      <path id="Path_5" data-name="Path 5" d="M517.554,261.745,484.3,301.379l39.634,33.257,66.513-79.267-39.633-33.257Z" transform="translate(-484.298 -222.112)" fill="none"/>
    </clipPath>
    <linearGradient id="linear-gradient-5" x1="-0.384" y1="2.34" x2="-0.384" y2="2.343" xlink:href="#linear-gradient"/>
    <clipPath id="clip-path-6">
      <path id="Path_6" data-name="Path 6" d="M518.122,291.3l-33.028,27.714,27.714,33.028,66.056-55.428-27.714-33.028Z" transform="translate(-485.094 -263.582)" fill="none"/>
    </clipPath>
    <linearGradient id="linear-gradient-6" x1="-0.561" y1="2.707" x2="-0.561" y2="2.711" xlink:href="#linear-gradient"/>
    <clipPath id="clip-path-7">
      <path id="Path_8" data-name="Path 8" d="M525.948,317.246l-29.871,17.246,17.246,29.871,59.742-34.492L555.819,300Z" transform="translate(-496.077 -300)" fill="none"/>
    </clipPath>
    <linearGradient id="linear-gradient-7" x1="-0.828" y1="3.257" x2="-0.828" y2="3.261" xlink:href="#linear-gradient"/>
    <clipPath id="clip-path-8">
      <path id="Path_9" data-name="Path 9" d="M539.736,338.066l-24.309,8.848,8.848,24.309,48.618-17.7-8.848-24.309Z" transform="translate(-515.428 -329.218)" fill="none"/>
    </clipPath>
    <linearGradient id="linear-gradient-8" x1="-1.272" y1="4.174" x2="-1.272" y2="4.179" xlink:href="#linear-gradient"/>
    <clipPath id="clip-path-9">
      <path id="Path_10" data-name="Path 10" d="M557.9,352.576l-16.984,2.995,2.995,16.984,33.968-5.989-2.995-16.984Z" transform="translate(-540.911 -349.581)" fill="none"/>
    </clipPath>
    <linearGradient id="linear-gradient-9" x1="-2.162" y1="6.002" x2="-2.162" y2="6.01" xlink:href="#linear-gradient"/>
    <clipPath id="clip-path-10">
      <path id="Path_11" data-name="Path 11" d="M578.623,360H570v8.623h17.246V360Z" transform="translate(-570 -360)" fill="none"/>
    </clipPath>
    <linearGradient id="linear-gradient-10" x1="-4.848" y1="11.453" x2="-4.848" y2="11.47" xlink:href="#linear-gradient"/>
  </defs>
  <g id="Group_168" data-name="Group 168" transform="translate(-680 -340)">
    <g id="Group_167" data-name="Group 167" transform="translate(112 42)">
      <g id="shape_1" data-name="shape 1" transform="translate(435 238)">
        <g id="Group_3" data-name="Group 3" transform="translate(405.042 60)">
          <g id="Group_2" data-name="Group 2" transform="translate(0)" clip-path="url(#clip-path)">
            <g id="Group_1" data-name="Group 1" transform="translate(-83.118 3.63)">
              <g id="curve_1_c1" data-name="curve 1 c1" transform="translate(0 0)">
                <ellipse id="Ellipse_1" data-name="Ellipse 1" cx="83" cy="82.5" rx="83" ry="82.5" transform="translate(0.077 0.37)" fill="url(#linear-gradient)"/>
              </g>
            </g>
          </g>
        </g>
        <g id="Group_4" data-name="Group 4" transform="translate(326.4 67.588)">
          <g id="curve_1_c0" data-name="curve 1 c0">
            <circle id="Ellipse_2" data-name="Ellipse 2" cx="78.641" cy="78.641" r="78.641" fill="#35083e" stroke="#35083e" stroke-width="1"/>
          </g>
        </g>
        <g id="Group_7" data-name="Group 7" transform="translate(391.566 69.802)">
          <g id="Group_6" data-name="Group 6" transform="translate(0 0)" clip-path="url(#clip-path-2)">
            <g id="Group_5" data-name="Group 5" transform="translate(-91.886 -28.935)">
              <g id="curve_1_c1-2" data-name="curve 1 c1" transform="translate(0 0)">
                <circle id="Ellipse_3" data-name="Ellipse 3" cx="74.502" cy="74.502" r="74.502" transform="translate(0 105.362) rotate(-45)" fill="url(#linear-gradient-2)"/>
              </g>
            </g>
          </g>
        </g>
        <g id="Group_8" data-name="Group 8" transform="translate(334.678 75.866)">
          <g id="curve_1_c0-2" data-name="curve 1 c0">
            <circle id="Ellipse_4" data-name="Ellipse 4" cx="70.363" cy="70.363" r="70.363" fill="#35083e" stroke="#35083e" stroke-width="1"/>
          </g>
        </g>
        <g id="Group_11" data-name="Group 11" transform="translate(381.448 81.406)">
          <g id="Group_10" data-name="Group 10" clip-path="url(#clip-path-3)">
            <g id="Group_9" data-name="Group 9" transform="translate(-70.062 -28.832)">
              <g id="curve_1_c1-3" data-name="curve 1 c1" transform="translate(0 0)">
                <circle id="Ellipse_5" data-name="Ellipse 5" cx="66.224" cy="66.224" r="66.224" transform="translate(0 93.656) rotate(-45)" fill="url(#linear-gradient-3)"/>
              </g>
            </g>
          </g>
        </g>
        <g id="Group_12" data-name="Group 12" transform="translate(342.493 84.199)">
          <g id="curve_1_c0-3" data-name="curve 1 c0" transform="translate(0 0)">
            <ellipse id="Ellipse_6" data-name="Ellipse 6" cx="62.5" cy="62" rx="62.5" ry="62" transform="translate(-0.493 -0.199)" fill="#35083e" stroke="#35083e" stroke-width="1"/>
          </g>
        </g>
        <g id="Group_15" data-name="Group 15" transform="translate(374.861 93.956)">
          <g id="Group_14" data-name="Group 14" clip-path="url(#clip-path-4)">
            <g id="Group_13" data-name="Group 13" transform="translate(-27.766 -5.672)">
              <g id="curve_1_c1-4" data-name="curve 1 c1">
                <circle id="Ellipse_7" data-name="Ellipse 7" cx="57.946" cy="57.946" r="57.946" fill="url(#linear-gradient-4)"/>
              </g>
            </g>
          </g>
        </g>
        <g id="Group_16" data-name="Group 16" transform="translate(351.234 92.422)">
          <g id="curve_1_c0-4" data-name="curve 1 c0">
            <circle id="Ellipse_8" data-name="Ellipse 8" cx="53.807" cy="53.807" r="53.807" fill="#35083e" stroke="#35083e" stroke-width="1"/>
          </g>
        </g>
        <g id="Group_19" data-name="Group 19" transform="translate(371.785 106.596)">
          <g id="Group_18" data-name="Group 18" clip-path="url(#clip-path-5)">
            <g id="Group_17" data-name="Group 17" transform="translate(-16.412 -10.035)">
              <g id="curve_1_c1-5" data-name="curve 1 c1">
                <circle id="Ellipse_9" data-name="Ellipse 9" cx="49.668" cy="49.668" r="49.668" fill="url(#linear-gradient-5)"/>
              </g>
            </g>
          </g>
        </g>
        <g id="Group_20" data-name="Group 20" transform="translate(359.512 100.7)">
          <g id="curve_1_c0-5" data-name="curve 1 c0" transform="translate(0 0)">
            <circle id="Ellipse_10" data-name="Ellipse 10" cx="45.529" cy="45.529" r="45.529" fill="#35083e" stroke="#35083e" stroke-width="1"/>
          </g>
        </g>
        <g id="Group_23" data-name="Group 23" transform="translate(372.014 118.516)">
          <g id="Group_22" data-name="Group 22" clip-path="url(#clip-path-6)">
            <g id="Group_21" data-name="Group 21" transform="translate(-25.507 -30.821)">
              <g id="curve_1_c1-6" data-name="curve 1 c1" transform="translate(0 0)">
                <circle id="Ellipse_11" data-name="Ellipse 11" cx="41.39" cy="41.39" r="41.39" transform="translate(0 58.535) rotate(-45)" fill="url(#linear-gradient-6)"/>
              </g>
            </g>
          </g>
        </g>
        <g id="Group_24" data-name="Group 24" transform="translate(367.791 108.979)">
          <g id="curve_1_c0-6" data-name="curve 1 c0" transform="translate(0)">
            <circle id="Ellipse_12" data-name="Ellipse 12" cx="37.251" cy="37.251" r="37.251" fill="#35083e" stroke="#35083e" stroke-width="1"/>
          </g>
        </g>
        <g id="Group_27" data-name="Group 27" transform="translate(375.171 128.984)">
          <g id="Group_26" data-name="Group 26" clip-path="url(#clip-path-7)">
            <g id="Group_25" data-name="Group 25" transform="translate(-3.247 -15.872)">
              <g id="curve_1_c1-7" data-name="curve 1 c1">
                <path id="Path_7" data-name="Path 7" d="M546.574,261.342a33.112,33.112,0,1,1-45.232-12.12A33.112,33.112,0,0,1,546.574,261.342Z" transform="translate(-484.781 -244.781)" fill="url(#linear-gradient-7)"/>
              </g>
            </g>
          </g>
        </g>
        <g id="Group_28" data-name="Group 28" transform="translate(376.069 117.257)">
          <g id="curve_1_c0-7" data-name="curve 1 c0">
            <circle id="Ellipse_13" data-name="Ellipse 13" cx="28.973" cy="28.973" r="28.973" fill="#35083e" stroke="#35083e" stroke-width="1"/>
          </g>
        </g>
        <g id="Group_31" data-name="Group 31" transform="translate(380.733 137.382)">
          <g id="Group_30" data-name="Group 30" transform="translate(0)" clip-path="url(#clip-path-8)">
            <g id="Group_29" data-name="Group 29" transform="translate(-10.812 -26.273)">
              <g id="curve_1_c1-8" data-name="curve 1 c1" transform="translate(0 0)">
                <circle id="Ellipse_14" data-name="Ellipse 14" cx="24.834" cy="24.834" r="24.834" transform="translate(0 35.121) rotate(-45)" fill="url(#linear-gradient-8)"/>
              </g>
            </g>
          </g>
        </g>
        <g id="Group_32" data-name="Group 32" transform="translate(384.236 125.338)">
          <g id="curve_1_c0-8" data-name="curve 1 c0" transform="translate(0 0)">
            <circle id="Ellipse_15" data-name="Ellipse 15" cx="21" cy="21" r="21" transform="translate(-0.236 -0.338)" fill="#35083e" stroke="#35083e" stroke-width="1"/>
          </g>
        </g>
        <g id="Group_35" data-name="Group 35" transform="translate(388.058 143.235)">
          <g id="Group_34" data-name="Group 34" transform="translate(0)" clip-path="url(#clip-path-9)">
            <g id="Group_33" data-name="Group 33" transform="translate(-0.546 -14.535)">
              <g id="curve_1_c1-9" data-name="curve 1 c1" transform="translate(0 0)">
                <circle id="Ellipse_16" data-name="Ellipse 16" cx="16.556" cy="16.556" r="16.556" transform="matrix(0.061, -0.998, 0.998, 0.061, 0, 33.051)" fill="url(#linear-gradient-9)"/>
              </g>
            </g>
          </g>
        </g>
        <g id="Group_36" data-name="Group 36" transform="translate(390.838 132.026)">
          <g id="curve_1_c0-9" data-name="curve 1 c0" transform="translate(0 0)">
            <circle id="Ellipse_17" data-name="Ellipse 17" cx="12.417" cy="12.417" r="12.417" transform="translate(0 24.53) rotate(-81.016)" fill="#35083e" stroke="#35083e" stroke-width="1"/>
          </g>
        </g>
        <g id="Group_39" data-name="Group 39" transform="translate(396.419 146.23)">
          <g id="Group_38" data-name="Group 38" transform="translate(0)" clip-path="url(#clip-path-10)">
            <g id="Group_37" data-name="Group 37" transform="translate(-2.749 -11.372)">
              <g id="curve_1_c1-10" data-name="curve 1 c1" transform="translate(0 0)">
                <circle id="Ellipse_18" data-name="Ellipse 18" cx="8.278" cy="8.278" r="8.278" transform="matrix(0.519, -0.855, 0.855, 0.519, 0, 14.152)" fill="url(#linear-gradient-10)"/>
              </g>
            </g>
          </g>
        </g>
        <g id="Group_40" data-name="Group 40" transform="translate(400.886 142.074)">
          <g id="curve_1_c0-10" data-name="curve 1 c0" transform="translate(0 0)">
            <circle id="Ellipse_19" data-name="Ellipse 19" cx="4.139" cy="4.139" r="4.139" transform="translate(0 0.033) rotate(-0.226)" fill="#35083e"/>
          </g>
        </g>
      </g>
      <text id="COMMUNITY_" data-name="COMMUNITY 
" transform="translate(568 367)" fill="#fff" font-size="45" font-family="Raleway-SemiBold, Raleway" font-weight="600"><tspan x="0" y="0">COMMUNITY</tspan><tspan y="0" fill="#707070"> </tspan><tspan fill="#707070"><tspan x="0" y="53"></tspan></tspan></text>
      <text id="Science_Musum" data-name="Science Musum" transform="translate(578 397)" fill="#fff" font-size="30" font-family="Raleway-SemiBold, Raleway" font-weight="600"><tspan x="0" y="0">Science Musum</tspan></text>
    </g>
  </g>
</svg>
