<svg xmlns="http://www.w3.org/2000/svg" xmlns:xlink="http://www.w3.org/1999/xlink" width="580.997" height="291.14" viewBox="0 0 580.997 291.14">
  <defs>
    <style>
      .cls-1 {
        fill: none;
      }

      .cls-2 {
        clip-path: url(#clip-path);
      }

      .cls-3 {
        fill: url(#linear-gradient);
      }

      .cls-23, .cls-4 {
        fill: #58296b;
      }

      .cls-4 {
        stroke: #58296b;
      }

      .cls-5 {
        clip-path: url(#clip-path-2);
      }

      .cls-6 {
        fill: url(#linear-gradient-2);
      }

      .cls-7 {
        clip-path: url(#clip-path-3);
      }

      .cls-8 {
        fill: url(#linear-gradient-3);
      }

      .cls-9 {
        clip-path: url(#clip-path-4);
      }

      .cls-10 {
        fill: url(#linear-gradient-4);
      }

      .cls-11 {
        clip-path: url(#clip-path-5);
      }

      .cls-12 {
        fill: url(#linear-gradient-5);
      }

      .cls-13 {
        clip-path: url(#clip-path-6);
      }

      .cls-14 {
        fill: url(#linear-gradient-6);
      }

      .cls-15 {
        clip-path: url(#clip-path-7);
      }

      .cls-16 {
        fill: url(#linear-gradient-7);
      }

      .cls-17 {
        clip-path: url(#clip-path-8);
      }

      .cls-18 {
        fill: url(#linear-gradient-8);
      }

      .cls-19 {
        clip-path: url(#clip-path-9);
      }

      .cls-20 {
        fill: url(#linear-gradient-9);
      }

      .cls-21 {
        clip-path: url(#clip-path-10);
      }

      .cls-22 {
        fill: url(#linear-gradient-10);
      }

      .cls-24, .cls-26 {
        fill: #fff;
        font-family: Raleway-SemiBold, Raleway;
        font-weight: 600;
      }

      .cls-24 {
        font-size: 70px;
      }

      .cls-25 {
        fill: #707070;
        font-size: 20px;
        font-family: HelveticaNeue, Helvetica Neue;
        font-weight: 400;
      }

      .cls-26 {
        font-size: 45px;
      }
    </style>
    <clipPath id="clip-path">
      <path id="Path_1" data-name="Path 1" class="cls-1" d="M600,202.533V345.066H742.533V60H600Z" transform="translate(-600 -60)"/>
    </clipPath>
    <linearGradient id="linear-gradient" x1="-0.03" y1="1.605" x2="-0.03" y2="1.607" gradientUnits="objectBoundingBox">
      <stop offset="0" stop-color="#1478c8"/>
      <stop offset="1" stop-color="#288cdc"/>
    </linearGradient>
    <clipPath id="clip-path-2">
      <path id="Path_2" data-name="Path 2" class="cls-1" d="M575.391,220.433,553.115,346.764,679.446,369.04,724,116.378,597.666,94.1Z" transform="translate(-553.115 -94.102)"/>
    </clipPath>
    <linearGradient id="linear-gradient-2" x1="-0.089" y1="1.727" x2="-0.089" y2="1.729" xlink:href="#linear-gradient"/>
    <clipPath id="clip-path-3">
      <path id="Path_3" data-name="Path 3" class="cls-1" d="M556.914,241.624l-39,107.15,107.15,39,78-214.3-107.15-39Z" transform="translate(-517.915 -134.474)"/>
    </clipPath>
    <linearGradient id="linear-gradient-3" x1="-0.162" y1="1.881" x2="-0.162" y2="1.883" xlink:href="#linear-gradient"/>
    <clipPath id="clip-path-4">
      <path id="Path_4" data-name="Path 4" class="cls-1" d="M544.887,264.541,495,350.947l86.406,49.887,99.773-172.812-86.406-49.887Z" transform="translate(-495 -178.135)"/>
    </clipPath>
    <linearGradient id="linear-gradient-4" x1="-0.257" y1="2.078" x2="-0.257" y2="2.08" xlink:href="#linear-gradient"/>
    <clipPath id="clip-path-5">
      <path id="Path_5" data-name="Path 5" class="cls-1" d="M539.269,287.624,484.3,353.136l65.512,54.971L659.752,277.083,594.24,222.112Z" transform="translate(-484.298 -222.112)"/>
    </clipPath>
    <linearGradient id="linear-gradient-5" x1="-0.384" y1="2.34" x2="-0.384" y2="2.343" xlink:href="#linear-gradient"/>
    <clipPath id="clip-path-6">
      <path id="Path_6" data-name="Path 6" class="cls-1" d="M539.687,309.391,485.094,355.2,530.9,409.794,640.09,318.175l-45.81-54.593Z" transform="translate(-485.094 -263.582)"/>
    </clipPath>
    <linearGradient id="linear-gradient-6" x1="-0.561" y1="2.707" x2="-0.561" y2="2.711" xlink:href="#linear-gradient"/>
    <clipPath id="clip-path-7">
      <path id="Path_8" data-name="Path 8" class="cls-1" d="M545.452,328.507l-49.375,28.507,28.507,49.375,98.75-57.013L594.827,300Z" transform="translate(-496.077 -300)"/>
    </clipPath>
    <linearGradient id="linear-gradient-7" x1="-0.828" y1="3.257" x2="-0.828" y2="3.261" xlink:href="#linear-gradient"/>
    <clipPath id="clip-path-8">
      <path id="Path_9" data-name="Path 9" class="cls-1" d="M555.609,343.843l-40.181,14.625,14.625,40.181L610.415,369.4,595.79,329.218Z" transform="translate(-515.428 -329.218)"/>
    </clipPath>
    <linearGradient id="linear-gradient-8" x1="-1.272" y1="4.174" x2="-1.272" y2="4.179" xlink:href="#linear-gradient"/>
    <clipPath id="clip-path-9">
      <path id="Path_10" data-name="Path 10" class="cls-1" d="M568.985,354.531l-28.074,4.95,4.95,28.074,56.147-9.9-4.95-28.074Z" transform="translate(-540.911 -349.581)"/>
    </clipPath>
    <linearGradient id="linear-gradient-9" x1="-2.162" y1="6.002" x2="-2.162" y2="6.01" xlink:href="#linear-gradient"/>
    <clipPath id="clip-path-10">
      <path id="Path_11" data-name="Path 11" class="cls-1" d="M584.253,360H570v14.253h28.507V360Z" transform="translate(-570 -360)"/>
    </clipPath>
    <linearGradient id="linear-gradient-10" x1="-4.848" y1="11.453" x2="-4.848" y2="11.47" xlink:href="#linear-gradient"/>
  </defs>
  <g id="Group_168" data-name="Group 168" transform="translate(-459 -298)">
    <g id="Group_167" data-name="Group 167">
      <g id="shape_1" data-name="shape 1" transform="translate(435 238)">
        <g id="Group_3" data-name="Group 3" transform="translate(456.39 60)">
          <g id="Group_2" data-name="Group 2" class="cls-2" transform="translate(0)">
            <g id="Group_1" data-name="Group 1" transform="translate(-136.972 5.818)">
              <g id="curve_1_c1" data-name="curve 1 c1" transform="translate(0 0)">
                <ellipse id="Ellipse_1" data-name="Ellipse 1" class="cls-3" cx="137" cy="136.5" rx="137" ry="136.5" transform="translate(-0.418 0.182)"/>
              </g>
            </g>
          </g>
        </g>
        <g id="Group_4" data-name="Group 4" transform="translate(326.4 72.543)">
          <g id="curve_1_c0" data-name="curve 1 c0">
            <circle id="Ellipse_2" data-name="Ellipse 2" class="cls-4" cx="129.99" cy="129.99" r="129.99"/>
          </g>
        </g>
        <g id="Group_7" data-name="Group 7" transform="translate(434.115 76.202)">
          <g id="Group_6" data-name="Group 6" class="cls-5" transform="translate(0 0)">
            <g id="Group_5" data-name="Group 5" transform="translate(-151.883 -47.828)">
              <g id="curve_1_c1-2" data-name="curve 1 c1" transform="translate(0 0)">
                <circle id="Ellipse_3" data-name="Ellipse 3" class="cls-6" cx="123.149" cy="123.149" r="123.149" transform="translate(0 174.158) rotate(-45)"/>
              </g>
            </g>
          </g>
        </g>
        <g id="Group_8" data-name="Group 8" transform="translate(340.083 86.226)">
          <g id="curve_1_c0-2" data-name="curve 1 c0">
            <circle id="Ellipse_4" data-name="Ellipse 4" class="cls-4" cx="116.307" cy="116.307" r="116.307"/>
          </g>
        </g>
        <g id="Group_11" data-name="Group 11" transform="translate(417.391 95.383)">
          <g id="Group_10" data-name="Group 10" class="cls-7">
            <g id="Group_9" data-name="Group 9" transform="translate(-115.808 -47.658)">
              <g id="curve_1_c1-3" data-name="curve 1 c1" transform="translate(0 0)">
                <circle id="Ellipse_5" data-name="Ellipse 5" class="cls-8" cx="109.466" cy="109.466" r="109.466" transform="translate(0 154.808) rotate(-45)"/>
              </g>
            </g>
          </g>
        </g>
        <g id="Group_12" data-name="Group 12" transform="translate(353.497 99.898)">
          <g id="curve_1_c0-3" data-name="curve 1 c0" transform="translate(0 0)">
            <ellipse id="Ellipse_6" data-name="Ellipse 6" class="cls-4" cx="103" cy="102.5" rx="103" ry="102.5" transform="translate(-0.497 0.102)"/>
          </g>
        </g>
        <g id="Group_15" data-name="Group 15" transform="translate(406.504 116.127)">
          <g id="Group_14" data-name="Group 14" class="cls-9">
            <g id="Group_13" data-name="Group 13" transform="translate(-45.896 -9.376)">
              <g id="curve_1_c1-4" data-name="curve 1 c1">
                <circle id="Ellipse_7" data-name="Ellipse 7" class="cls-10" cx="95.782" cy="95.782" r="95.782"/>
              </g>
            </g>
          </g>
        </g>
        <g id="Group_16" data-name="Group 16" transform="translate(367.45 113.592)">
          <g id="curve_1_c0-4" data-name="curve 1 c0">
            <circle id="Ellipse_8" data-name="Ellipse 8" class="cls-4" cx="88.941" cy="88.941" r="88.941"/>
          </g>
        </g>
        <g id="Group_19" data-name="Group 19" transform="translate(401.419 137.021)">
          <g id="Group_18" data-name="Group 18" class="cls-11">
            <g id="Group_17" data-name="Group 17" transform="translate(-27.128 -16.587)">
              <g id="curve_1_c1-5" data-name="curve 1 c1">
                <circle id="Ellipse_9" data-name="Ellipse 9" class="cls-12" cx="82.099" cy="82.099" r="82.099"/>
              </g>
            </g>
          </g>
        </g>
        <g id="Group_20" data-name="Group 20" transform="translate(381.133 127.276)">
          <g id="curve_1_c0-5" data-name="curve 1 c0" transform="translate(0 0)">
            <circle id="Ellipse_10" data-name="Ellipse 10" class="cls-4" cx="75.258" cy="75.258" r="75.258"/>
          </g>
        </g>
        <g id="Group_23" data-name="Group 23" transform="translate(401.797 156.724)">
          <g id="Group_22" data-name="Group 22" class="cls-13">
            <g id="Group_21" data-name="Group 21" transform="translate(-42.162 -50.946)">
              <g id="curve_1_c1-6" data-name="curve 1 c1">
                <circle id="Ellipse_11" data-name="Ellipse 11" class="cls-14" cx="68.416" cy="68.416" r="68.416" transform="translate(0 96.755) rotate(-45)"/>
              </g>
            </g>
          </g>
        </g>
        <g id="Group_24" data-name="Group 24" transform="translate(394.816 140.959)">
          <g id="curve_1_c0-6" data-name="curve 1 c0" transform="translate(0)">
            <circle id="Ellipse_12" data-name="Ellipse 12" class="cls-4" cx="61.574" cy="61.574" r="61.574"/>
          </g>
        </g>
        <g id="Group_27" data-name="Group 27" transform="translate(407.016 174.027)">
          <g id="Group_26" data-name="Group 26" class="cls-15">
            <g id="Group_25" data-name="Group 25" transform="translate(-5.367 -26.235)">
              <g id="curve_1_c1-7" data-name="curve 1 c1">
                <path id="Path_7" data-name="Path 7" class="cls-16" d="M586.922,272.156a54.733,54.733,0,1,1-74.766-20.034A54.733,54.733,0,0,1,586.922,272.156Z" transform="translate(-484.781 -244.781)"/>
              </g>
            </g>
          </g>
        </g>
        <g id="Group_28" data-name="Group 28" transform="translate(408.499 154.642)">
          <g id="curve_1_c0-7" data-name="curve 1 c0">
            <circle id="Ellipse_13" data-name="Ellipse 13" class="cls-4" cx="47.891" cy="47.891" r="47.891"/>
          </g>
        </g>
        <g id="Group_31" data-name="Group 31" transform="translate(416.209 187.908)">
          <g id="Group_30" data-name="Group 30" class="cls-17" transform="translate(0)">
            <g id="Group_29" data-name="Group 29" transform="translate(-17.872 -43.428)">
              <g id="curve_1_c1-8" data-name="curve 1 c1" transform="translate(0 0)">
                <circle id="Ellipse_14" data-name="Ellipse 14" class="cls-18" cx="41.05" cy="41.05" r="41.05" transform="translate(0 58.053) rotate(-45)"/>
              </g>
            </g>
          </g>
        </g>
        <g id="Group_32" data-name="Group 32" transform="translate(422.487 168.056)">
          <g id="curve_1_c0-8" data-name="curve 1 c0" transform="translate(0 0)">
            <circle id="Ellipse_15" data-name="Ellipse 15" class="cls-4" cx="34.5" cy="34.5" r="34.5" transform="translate(-0.487 -0.056)"/>
          </g>
        </g>
        <g id="Group_35" data-name="Group 35" transform="translate(428.317 197.583)">
          <g id="Group_34" data-name="Group 34" class="cls-19" transform="translate(0)">
            <g id="Group_33" data-name="Group 33" transform="translate(-0.902 -24.026)">
              <g id="curve_1_c1-9" data-name="curve 1 c1" transform="translate(0 0)">
                <circle id="Ellipse_16" data-name="Ellipse 16" class="cls-20" cx="27.366" cy="27.366" r="27.366" transform="matrix(0.061, -0.998, 0.998, 0.061, 0, 54.632)"/>
              </g>
            </g>
          </g>
        </g>
        <g id="Group_36" data-name="Group 36" transform="translate(432.912 179.055)">
          <g id="curve_1_c0-9" data-name="curve 1 c0" transform="translate(0 0)">
            <circle id="Ellipse_17" data-name="Ellipse 17" class="cls-4" cx="20.525" cy="20.525" r="20.525" transform="translate(0 40.546) rotate(-81.016)"/>
          </g>
        </g>
        <g id="Group_39" data-name="Group 39" transform="translate(442.137 202.533)">
          <g id="Group_38" data-name="Group 38" class="cls-21" transform="translate(0)">
            <g id="Group_37" data-name="Group 37" transform="translate(-4.544 -18.797)">
              <g id="curve_1_c1-10" data-name="curve 1 c1" transform="translate(0 0)">
                <circle id="Ellipse_18" data-name="Ellipse 18" class="cls-22" cx="13.683" cy="13.683" r="13.683" transform="matrix(0.519, -0.855, 0.855, 0.519, 0, 23.393)"/>
              </g>
            </g>
          </g>
        </g>
        <g id="Group_40" data-name="Group 40" transform="translate(449.522 195.664)">
          <g id="curve_1_c0-10" data-name="curve 1 c0" transform="translate(0 0)">
            <circle id="Ellipse_19" data-name="Ellipse 19" class="cls-23" cx="6.842" cy="6.842" r="6.842" transform="translate(0 0.054) rotate(-0.226)"/>
          </g>
        </g>
      </g>
      <text id="COMMUNITY_" data-name="COMMUNITY 
" class="cls-24" transform="translate(459 416)"><tspan x="0" y="0">COMMUNITY</tspan><tspan class="cls-25" y="0"> </tspan><tspan class="cls-25"><tspan x="0" y="83"></tspan></tspan></text>
      <text id="Science_Musum" data-name="Science Musum" class="cls-26" transform="translate(487 475)"><tspan x="0" y="0">Science Musum</tspan></text>
    </g>
  </g>
</svg>
